<?xml version="1.0" encoding="UTF-8"?>
<svg width="12px" height="12px" viewBox="0 0 12 12" version="1.1"
  xmlns="http://www.w3.org/2000/svg"
  xmlns:xlink="http://www.w3.org/1999/xlink">
  <title>Fill 8</title>
  <defs>
    <rect id="path-1" x="0" y="0" width="908" height="1032" rx="8"></rect>
    <filter x="-6.9%" y="-6.4%" width="113.9%" height="112.2%" filterUnits="objectBoundingBox" id="filter-3">
      <feMorphology radius="4" operator="dilate" in="SourceAlpha" result="shadowSpreadOuter1"></feMorphology>
      <feOffset dx="0" dy="-3" in="shadowSpreadOuter1" result="shadowOffsetOuter1"></feOffset>
      <feGaussianBlur stdDeviation="16.5" in="shadowOffsetOuter1" result="shadowBlurOuter1"></feGaussianBlur>
      <feColorMatrix values="0 0 0 0 0   0 0 0 0 0   0 0 0 0 0  0 0 0 0.148410184 0" type="matrix" in="shadowBlurOuter1"></feColorMatrix>
    </filter>
  </defs>
  <g id="完成" stroke="none" stroke-width="1" fill="none" fill-rule="evenodd">
    <g id="单个作品拍卖结束-转卖" transform="translate(-837.000000, -773.000000)">
      <g id="6d6b7dcd9a94a1e606f77a515989bfd45b78d57d98ea1-uRCOzg_fw658" transform="translate(62.000000, 123.000000)">
        <mask id="mask-2" fill="white">
          <use xlink:href="#path-1"></use>
        </mask>
        <g id="蒙版">
          <use fill="black" fill-opacity="1" filter="url(#filter-3)" xlink:href="#path-1"></use>
          <use fill="#FFFFFF" fill-rule="evenodd" xlink:href="#path-1"></use>
        </g>
      </g>
      <g id="编组-6" transform="translate(837.000000, 770.000000)" fill="#000000">
        <path d="M11.4958814,3.00093962 L11.5190895,3.00221928 C11.802816,3.02098484 12.0176239,3.26620933 11.9988584,3.55000282 C11.9799087,3.83379631 11.7352701,4.04939098 11.4508907,4.02977168 L11.4508907,4.02977168 C11.4161719,4.02977168 11.1214472,4.03415756 10.9093846,4.23843598 C10.722315,4.41884313 10.6274326,4.72259072 10.6274326,5.14147613 L10.6274326,5.14147613 L10.6279577,7.02540558 C10.6279877,7.09870031 10.6280185,7.17232424 10.6280498,7.24606119 L10.628933,9.10684861 C10.628963,9.16511156 10.6289922,9.22154213 10.6290206,9.27592418 L10.6294581,10.0888706 C10.6294581,11.3534617 9.60091804,12.381985 8.33666183,12.381985 L8.33666183,12.381985 L2.29842092,12.381985 C1.03421492,12.381985 0.00575856546,11.3533947 0.00575856546,10.0892054 L0.00575856546,10.0892054 L0.00575856546,7.10986764 C0.00575856546,5.84561142 1.03421492,4.81727225 2.29842092,4.81727225 L2.29842092,4.81727225 L7.8032747,4.81727225 C8.08765409,4.81727225 8.31821433,5.04776552 8.31821433,5.33222861 C8.31821433,5.61667496 8.08765409,5.84716824 7.8032747,5.84716824 L7.8032747,5.84716824 L2.29842092,5.84716824 C1.6021367,5.84716824 1.03565456,6.41351646 1.03565456,7.10986764 L1.03565456,7.10986764 L1.03565456,10.0892054 C1.03565456,10.7855399 1.6021367,11.352089 2.29842092,11.352089 L2.29842092,11.352089 L8.33666183,11.352089 C9.03306323,11.352089 9.59954536,10.7855399 9.59954536,10.0892054 L9.59954536,10.0892054 L9.59902022,9.10723797 C9.59899021,9.04897007 9.59895946,8.98886932 9.5989281,8.92715194 L9.59804496,7.02556306 C9.59801495,6.95225983 9.5979857,6.87928592 9.59795734,6.80685753 L9.59751982,5.14147613 C9.59751982,4.42080171 9.8045436,3.86178562 10.2127154,3.47976172 C10.6505673,3.07011344 11.174803,3.00663262 11.4062893,3.00054033 L11.4958814,3.00093962 L11.4958814,3.00093962 Z M7.81065705,6.98935627 C8.09503644,6.98935627 8.32561342,7.21984954 8.32561342,7.50429589 C8.32561342,7.78875898 8.09503644,8.01925226 7.81065705,8.01925226 L7.81065705,8.01925226 L2.83527323,8.01925226 C2.55089384,8.01925226 2.32031686,7.78875898 2.32031686,7.50429589 C2.32031686,7.21984954 2.55089384,6.98935627 2.83527323,6.98935627 L2.83527323,6.98935627 Z M10.1017458,12.6772956 C10.4809574,12.6772956 10.7882874,12.9846925 10.7882874,13.3639041 C10.7882874,13.743032 10.4809574,14.0504289 10.1017458,14.0504289 C9.722551,14.0504289 9.41515409,13.743032 9.41515409,13.3639041 C9.41515409,12.9846925 9.722551,12.6772956 10.1017458,12.6772956 Z M0.686608491,12.6772956 C1.06580333,12.6772956 1.37320024,12.9846925 1.37320024,13.3639041 C1.37320024,13.743032 1.06580333,14.0504289 0.686608491,14.0504289 C0.307396912,14.0504289 0,13.743032 0,13.3639041 C0,12.9846925 0.307396912,12.6772956 0.686608491,12.6772956 Z M7.81065705,9.16274601 C8.09503644,9.16274601 8.32561342,9.39323929 8.32561342,9.67770237 C8.32561342,9.96214872 8.09503644,10.192642 7.81065705,10.192642 L7.81065705,10.192642 L2.83527323,10.192642 C2.55089384,10.192642 2.32031686,9.96214872 2.32031686,9.67770237 C2.32031686,9.39323929 2.55089384,9.16274601 2.83527323,9.16274601 L2.83527323,9.16274601 Z" id="Fill-8"></path>
      </g>
    </g>
  </g>
</svg>
