<?xml version="1.0" encoding="UTF-8"?>
<svg width="12px" height="12px" viewBox="0 0 12 12" version="1.1"
  xmlns="http://www.w3.org/2000/svg"
  xmlns:xlink="http://www.w3.org/1999/xlink">
  <title>形状结合</title>
  <defs>
    <rect id="path-1" x="0" y="0" width="908" height="1032" rx="8"></rect>
    <filter x="-6.9%" y="-6.4%" width="113.9%" height="112.2%" filterUnits="objectBoundingBox" id="filter-3">
      <feMorphology radius="4" operator="dilate" in="SourceAlpha" result="shadowSpreadOuter1"></feMorphology>
      <feOffset dx="0" dy="-3" in="shadowSpreadOuter1" result="shadowOffsetOuter1"></feOffset>
      <feGaussianBlur stdDeviation="16.5" in="shadowOffsetOuter1" result="shadowBlurOuter1"></feGaussianBlur>
      <feColorMatrix values="0 0 0 0 0   0 0 0 0 0   0 0 0 0 0  0 0 0 0.148410184 0" type="matrix" in="shadowBlurOuter1"></feColorMatrix>
    </filter>
  </defs>
  <g id="完成" stroke="none" stroke-width="1" fill="none" fill-rule="evenodd">
    <g id="单个作品拍卖结束-转卖" transform="translate(-733.000000, -773.000000)">
      <g id="6d6b7dcd9a94a1e606f77a515989bfd45b78d57d98ea1-uRCOzg_fw658" transform="translate(62.000000, 123.000000)">
        <mask id="mask-2" fill="white">
          <use xlink:href="#path-1"></use>
        </mask>
        <g id="蒙版">
          <use fill="black" fill-opacity="1" filter="url(#filter-3)" xlink:href="#path-1"></use>
          <use fill="#FFFFFF" fill-rule="evenodd" xlink:href="#path-1"></use>
        </g>
      </g>
      <path d="M737.057528,779.000033 C737.95149,779.402033 737.741484,780.260014 737.433578,781.067127 L737.339276,781.307228 C737.291662,781.426008 737.244109,781.542504 737.200013,781.655004 C737.124998,781.850004 737.019999,782.112475 736.960028,782.299989 C737.305012,782.299989 737.987481,782.157504 739.337478,781.452489 C739.528756,781.332328 739.739327,781.246107 739.959976,781.197518 C740.26787,781.153983 740.578519,781.256625 740.799915,781.474989 C740.986843,781.676566 741.067468,781.954667 741.0174,782.224975 C741.0174,782.314975 740.949944,782.517489 740.874929,782.77246 C740.799915,783.027489 740.724944,783.28996 740.64993,783.58996 L740.994914,783.364975 C741.345216,783.061943 741.765273,782.850624 742.217426,782.749975 C742.67885,782.73767 743.138736,782.808788 743.574863,782.959975 C743.716879,783.004609 743.834989,783.104452 743.90268,783.236977 C743.97037,783.36956 743.981927,783.523764 743.934891,783.66499 C743.888544,783.807519 743.787323,783.925673 743.65354,783.993261 C743.519756,784.060834 743.364585,784.072216 743.222393,784.02496 C742.925353,783.923271 742.613855,783.870112 742.299881,783.867431 C742.06517,783.991137 741.839541,784.131498 741.624913,784.287431 C740.942444,784.74496 740.29746,785.179946 739.772462,784.812431 C739.247463,784.44496 739.427477,783.70246 739.772462,782.494989 C738.804979,782.98996 737.095013,783.844946 736.105045,783.169975 C735.550061,782.749975 735.827517,782.045019 736.150016,781.249989 C736.323453,780.855741 736.451802,780.443124 736.532529,780.020033 C736.157516,780.065018 735.400032,781.010004 735.032563,781.482475 L734.815063,781.752504 C734.365094,782.589237 734.130544,783.524848 734.132536,784.474946 C734.112629,784.773803 733.862068,785.004575 733.562567,784.999931 C733.412084,784.999931 733.267885,784.939682 733.162138,784.832573 C733.056465,784.725449 732.998091,784.5804 733.000048,784.42996 C733.000048,784.189916 733.067612,782.082489 733.930095,781.017504 L734.140036,780.755033 C734.942548,779.750018 735.940016,778.497577 737.057528,779.000033 Z M744.159891,773.052649 L744.812374,773.427605 C744.899064,773.476311 744.962286,773.557962 744.987745,773.654085 C745.013218,773.750164 744.998614,773.852468 744.947345,773.93762 L742.134911,778.812518 L740.7024,780.087504 C740.654222,780.131332 740.583221,780.138949 740.526737,780.106444 C740.470326,780.073939 740.441249,780.00871 740.45493,779.945018 L740.837444,778.062533 L743.649878,773.187634 C743.698525,773.100945 743.780234,773.037649 743.876298,773.012249 C743.972377,772.98679 744.074681,773.001379 744.159891,773.052649 Z M737.687467,775.932606 C738.062496,775.932606 738.249995,776.120062 738.249995,776.495091 C738.249995,776.870047 738.062496,777.057562 737.687467,777.057562 L733.562567,777.057562 C733.187612,777.057562 733.000098,776.870047 733.000098,776.495091 C733.000098,776.120062 733.187612,775.932606 733.562567,775.932606 L737.687467,775.932606 Z M739.937432,773.00012 C740.312445,773.00012 740.49996,773.187634 740.49996,773.562649 C740.49996,773.93762 740.312445,774.125135 739.937432,774.125135 L733.562567,774.125135 C733.187612,774.125135 733.000098,773.93762 733.000098,773.562649 C733.000098,773.187634 733.187612,773.00012 733.562567,773.00012 L739.937432,773.00012 Z" id="形状结合" fill="#000000"></path>
    </g>
  </g>
</svg>
