<?xml version="1.0" encoding="UTF-8"?>
<svg width="24px" height="24px" viewBox="0 0 24 24" version="1.1" xmlns="http://www.w3.org/2000/svg" xmlns:xlink="http://www.w3.org/1999/xlink">
    <title>duomeitikongjianMultimediaControls8</title>
    <defs>
        <polygon id="path-1" points="7.6210197e-17 0 24 0 24 24 7.6210197e-17 24"></polygon>
    </defs>
    <g id="完成" stroke="none" stroke-width="1" fill="none" fill-rule="evenodd">
        <g id="登录" transform="translate(-49.000000, -39.000000)">
            <g id="duomeitikongjianMultimediaControls8" transform="translate(49.000000, 39.000000)">
                <mask id="mask-2" fill="white">
                    <use xlink:href="#path-1"></use>
                </mask>
                <g id="Clip-2"></g>
                <path d="M11.9999163,0 C3.99913505,0 0,4.00178013 0,11.9999163 C0,19.9982199 3.99913505,24 11.9999163,24 C20.0008315,24 24,19.9982199 24,11.9999163 C24,4.00178013 20.0008315,0 11.9999163,0 Z M12.2169138,20.1294027 C6.92138543,20.1294027 4.27499404,17.4830113 4.27499404,12.1928401 C4.27499404,6.89992341 6.92138543,4.25627754 12.2169138,4.25627754 C17.5124421,4.25627754 20.1588356,6.89992341 20.1588356,12.1928401 C20.161579,17.4830113 17.5124421,20.1294027 12.2169138,20.1294027 Z M12.2169138,6.69903083 C8.54995459,6.69903083 6.71788125,8.53127158 6.71788125,12.1954517 C6.71788125,15.8571877 8.54995459,17.689261 12.2169138,17.689261 C15.8838394,17.689261 17.7160802,15.8571877 17.7160802,12.1954517 C17.7160802,8.53127158 15.8838394,6.69903083 12.2169138,6.69903083 Z" id="Fill-1" fill="#040000" mask="url(#mask-2)"></path>
            </g>
        </g>
    </g>
</svg>
